<svg width="32" height="32" viewBox="0 0 32 32" fill="none" xmlns="http://www.w3.org/2000/svg">
<path d="M25.5014 28.6667H28.6665V31.8334H15.9998C7.25509 31.8334 0.166504 24.7448 0.166504 16C0.166504 7.25527 7.25509 0.166687 15.9998 0.166687C24.7446 0.166687 31.8332 7.25527 31.8332 16C31.8352 18.4583 31.264 20.8831 30.1648 23.0819C29.0657 25.2808 27.4689 27.193 25.5014 28.6667ZM15.9998 12.8334C16.8397 12.8334 17.6451 12.4997 18.239 11.9059C18.8329 11.312 19.1665 10.5065 19.1665 9.66669C19.1665 8.82683 18.8329 8.02138 18.239 7.42752C17.6451 6.83365 16.8397 6.50002 15.9998 6.50002C15.16 6.50002 14.3545 6.83365 13.7607 7.42752C13.1668 8.02138 12.8332 8.82683 12.8332 9.66669C12.8332 10.5065 13.1668 11.312 13.7607 11.9059C14.3545 12.4997 15.16 12.8334 15.9998 12.8334ZM9.6665 19.1667C10.5064 19.1667 11.3118 18.8331 11.9057 18.2392C12.4995 17.6453 12.8332 16.8399 12.8332 16C12.8332 15.1602 12.4995 14.3547 11.9057 13.7608C11.3118 13.167 10.5064 12.8334 9.6665 12.8334C8.82665 12.8334 8.0212 13.167 7.42733 13.7608C6.83347 14.3547 6.49984 15.1602 6.49984 16C6.49984 16.8399 6.83347 17.6453 7.42733 18.2392C8.0212 18.8331 8.82665 19.1667 9.6665 19.1667ZM22.3332 19.1667C23.173 19.1667 23.9785 18.8331 24.5723 18.2392C25.1662 17.6453 25.4998 16.8399 25.4998 16C25.4998 15.1602 25.1662 14.3547 24.5723 13.7608C23.9785 13.167 23.173 12.8334 22.3332 12.8334C21.4933 12.8334 20.6879 13.167 20.094 13.7608C19.5001 14.3547 19.1665 15.1602 19.1665 16C19.1665 16.8399 19.5001 17.6453 20.094 18.2392C20.6879 18.8331 21.4933 19.1667 22.3332 19.1667ZM15.9998 25.5C16.8397 25.5 17.6451 25.1664 18.239 24.5725C18.8329 23.9787 19.1665 23.1732 19.1665 22.3334C19.1665 21.4935 18.8329 20.688 18.239 20.0942C17.6451 19.5003 16.8397 19.1667 15.9998 19.1667C15.16 19.1667 14.3545 19.5003 13.7607 20.0942C13.1668 20.688 12.8332 21.4935 12.8332 22.3334C12.8332 23.1732 13.1668 23.9787 13.7607 24.5725C14.3545 25.1664 15.16 25.5 15.9998 25.5Z" fill="white"/>
</svg>
