<svg width="207" height="44" viewBox="0 0 207 44" fill="none" xmlns="http://www.w3.org/2000/svg">
<g filter="url(#filter0_d_12_506)">
<path d="M44.12 33.992C45.0533 33.7307 45.7253 33.488 46.136 33.264C46.5467 33.0027 46.8267 32.6667 46.976 32.256C47.1253 31.8453 47.2 31.2107 47.2 30.352V16.184C47.2 14.6907 47.088 13.5147 46.864 12.656C46.64 11.7973 46.2107 10.9387 45.576 10.08L45.128 9.464L45.576 8.848H57.336C59.3893 8.848 60.7707 8.60533 61.48 8.12L62.152 7.616L62.712 8.12V15.12L61.592 15.512C60.92 13.496 60.248 12.1147 59.576 11.368C58.9413 10.6213 58.008 10.248 56.776 10.248H54.928C53.9573 10.248 53.3227 10.4347 53.024 10.808C52.7253 11.144 52.576 11.8907 52.576 13.048V21.448H56.552C58.008 21.448 58.96 20.888 59.408 19.768L59.688 18.984L60.416 19.376V25.648L59.184 26.096L58.96 24.92C58.8107 24.0987 58.4747 23.5573 57.952 23.296C57.4293 22.9973 56.44 22.848 54.984 22.848H52.576V27.664C52.576 29.12 52.688 30.296 52.912 31.192C53.1733 32.0507 53.6213 32.9093 54.256 33.768L54.704 34.44L54.256 35H44.512L44.12 33.992ZM72.1253 31.808C72.1253 32.928 72.4799 33.488 73.1893 33.488C73.8986 33.488 74.5893 33.208 75.2613 32.648L75.7093 33.208C74.3279 34.7387 72.7039 35.504 70.8373 35.504C69.4933 35.504 68.5226 35.168 67.9253 34.496C67.3279 33.7867 67.0293 32.648 67.0293 31.08V19.992C67.0293 19.4693 66.7866 19.208 66.3013 19.208H64.5653L64.3973 18.592C65.1439 17.9573 66.0773 17.4347 67.1973 17.024C68.3173 16.6133 69.4373 16.408 70.5573 16.408C71.0053 16.408 71.3786 16.52 71.6773 16.744C71.9759 16.968 72.1253 17.2667 72.1253 17.64V31.808ZM66.4693 11.032C66.4693 10.36 66.8426 9.61333 67.5893 8.792C68.3359 7.97067 69.0266 7.56 69.6613 7.56C70.3333 7.56 71.0426 7.97067 71.7893 8.792C72.5733 9.61333 72.9653 10.36 72.9653 11.032C72.9653 11.7413 72.5733 12.5067 71.7893 13.328C71.0426 14.112 70.3333 14.504 69.6613 14.504C69.0266 14.504 68.3359 14.112 67.5893 13.328C66.8426 12.5067 66.4693 11.7413 66.4693 11.032ZM83.6004 31.808C83.6004 32.928 83.9551 33.488 84.6644 33.488C85.3738 33.488 86.0644 33.208 86.7364 32.648L87.1844 33.208C85.8778 34.7387 84.2538 35.504 82.3124 35.504C81.0058 35.504 80.0538 35.2053 79.4564 34.608C78.8591 33.9733 78.5604 32.984 78.5604 31.64V11.088C78.5604 10.5653 78.3178 10.304 77.8324 10.304H76.0404L75.8724 9.744C76.5818 9.072 77.4964 8.54933 78.6164 8.176C79.7738 7.76533 80.9124 7.56 82.0324 7.56C82.5178 7.56 82.8911 7.672 83.1524 7.896C83.4511 8.08266 83.6004 8.36267 83.6004 8.736V31.808ZM107.125 22.568C107.087 20.44 106.714 18.8907 106.005 17.92C105.295 16.912 104.175 16.408 102.645 16.408C101.189 16.408 99.8821 17.0053 98.7248 18.2C97.5675 19.3947 96.7461 20.8507 96.2608 22.568V17.976C96.2608 17.6027 96.1115 17.3227 95.8128 17.136C95.5515 16.912 95.1781 16.8 94.6928 16.8C93.5728 16.8 92.4528 17.0053 91.3328 17.416C90.2128 17.8267 89.2795 18.3493 88.5328 18.984L88.7008 19.544H90.4928C90.9781 19.544 91.2208 19.824 91.2208 20.384V31.304C91.2208 32.2373 91.1275 32.872 90.9408 33.208C90.7541 33.5067 90.3621 33.7307 89.7648 33.88L88.9808 34.048L89.3168 35H97.4368L97.8848 34.44L97.4368 33.88C96.9888 33.2453 96.6715 32.592 96.4848 31.92C96.3355 31.248 96.2608 30.3333 96.2608 29.176C96.2608 26.5627 96.5968 24.2667 97.2688 22.288C97.9408 20.272 98.8741 19.264 100.069 19.264C101.487 19.264 102.197 20.3467 102.197 22.512V35H108.413L108.861 34.44L108.413 33.88C108.002 33.2453 107.703 32.592 107.517 31.92C107.367 31.248 107.274 30.3333 107.237 29.176C107.237 26.5627 107.573 24.2667 108.245 22.288C108.917 20.272 109.85 19.264 111.045 19.264C112.463 19.264 113.173 20.3467 113.173 22.512V30.576C113.173 32.4053 113.453 33.6933 114.013 34.44C114.573 35.1493 115.543 35.504 116.925 35.504C118.791 35.504 120.415 34.7387 121.797 33.208L121.349 32.648C120.677 33.208 119.986 33.488 119.277 33.488C118.567 33.488 118.213 32.928 118.213 31.808V22.96C118.213 20.72 117.839 19.0773 117.093 18.032C116.383 16.9493 115.226 16.408 113.621 16.408C112.277 16.408 111.007 16.9867 109.813 18.144C108.618 19.3013 107.759 20.776 107.237 22.568H107.125ZM147.333 27.944C147.333 29.2507 147.389 30.24 147.501 30.912C147.613 31.584 147.837 32.1627 148.173 32.648C148.509 33.1333 149.031 33.6933 149.741 34.328L149.293 35H139.437L139.101 33.992C139.959 33.768 140.575 33.544 140.949 33.32C141.359 33.0587 141.621 32.7227 141.733 32.312C141.882 31.864 141.957 31.2107 141.957 30.352V22.512H132.045V27.944C132.045 29.2507 132.101 30.2587 132.213 30.968C132.325 31.64 132.53 32.2187 132.829 32.704C133.165 33.152 133.687 33.6933 134.397 34.328L134.005 35H124.149L123.813 33.992C125.045 33.656 125.829 33.2827 126.165 32.872C126.501 32.424 126.669 31.584 126.669 30.352V15.792C126.669 14 126.519 12.7493 126.221 12.04C125.959 11.2933 125.287 10.472 124.205 9.576L124.653 8.848H134.173L134.565 9.744C133.482 10.3787 132.791 10.976 132.493 11.536C132.194 12.0587 132.045 13.0107 132.045 14.392V20.944H141.957V15.792C141.957 14 141.807 12.7493 141.509 12.04C141.247 11.2933 140.575 10.472 139.493 9.576L139.941 8.848H149.461L149.909 9.744C148.826 10.3787 148.117 10.976 147.781 11.536C147.482 12.0587 147.333 13.0107 147.333 14.392V27.944ZM160.172 31.808C160.172 32.928 160.527 33.488 161.236 33.488C161.945 33.488 162.636 33.208 163.308 32.648L163.756 33.208C162.375 34.7387 160.751 35.504 158.884 35.504C157.54 35.504 156.569 35.168 155.972 34.496C155.375 33.7867 155.076 32.648 155.076 31.08V19.992C155.076 19.4693 154.833 19.208 154.348 19.208H152.612L152.444 18.592C153.191 17.9573 154.124 17.4347 155.244 17.024C156.364 16.6133 157.484 16.408 158.604 16.408C159.052 16.408 159.425 16.52 159.724 16.744C160.023 16.968 160.172 17.2667 160.172 17.64V31.808ZM154.516 11.032C154.516 10.36 154.889 9.61333 155.636 8.792C156.383 7.97067 157.073 7.56 157.708 7.56C158.38 7.56 159.089 7.97067 159.836 8.792C160.62 9.61333 161.012 10.36 161.012 11.032C161.012 11.7413 160.62 12.5067 159.836 13.328C159.089 14.112 158.38 14.504 157.708 14.504C157.073 14.504 156.383 14.112 155.636 13.328C154.889 12.5067 154.516 11.7413 154.516 11.032ZM175.175 33.712C176.37 33.712 177.303 32.9467 177.975 31.416C178.685 29.848 179.039 27.888 179.039 25.536C179.039 22.3627 178.367 19.8613 177.023 18.032L176.519 17.416L176.967 16.968L181.671 16.408C181.783 18.0133 181.839 19.3013 181.839 20.272C181.839 25.0507 181.111 28.784 179.655 31.472C178.199 34.16 176.239 35.504 173.775 35.504C171.834 35.504 170.359 34.9253 169.351 33.768C168.381 32.6107 167.69 30.7067 167.279 28.056L166.103 19.992C166.066 19.6933 165.991 19.488 165.879 19.376C165.767 19.264 165.599 19.208 165.375 19.208H163.863L163.695 18.592C164.442 17.92 165.338 17.3973 166.383 17.024C167.429 16.6133 168.455 16.408 169.463 16.408C170.023 16.408 170.415 16.576 170.639 16.912C170.901 17.248 171.106 17.92 171.255 18.928L172.711 28.952C172.973 30.7813 173.271 32.032 173.607 32.704C173.943 33.376 174.466 33.712 175.175 33.712ZM196.078 33.656C197.16 33.656 198.112 33.4693 198.934 33.096C199.755 32.6853 200.558 32.0133 201.342 31.08L202.014 31.584C201.155 32.816 200.054 33.7867 198.71 34.496C197.403 35.168 195.966 35.504 194.398 35.504C192.68 35.504 191.131 35.0933 189.75 34.272C188.406 33.4507 187.342 32.3307 186.558 30.912C185.774 29.456 185.382 27.8133 185.382 25.984C185.382 23.072 186.259 20.7573 188.014 19.04C189.806 17.2853 192.176 16.408 195.126 16.408C197.216 16.408 198.915 16.912 200.222 17.92C201.566 18.8907 202.238 20.16 202.238 21.728C202.238 23.52 201.472 24.9573 199.942 26.04C198.448 27.0853 196.395 27.608 193.782 27.608C192.736 27.608 191.784 27.5333 190.926 27.384C191.112 29.3253 191.672 30.856 192.606 31.976C193.539 33.096 194.696 33.656 196.078 33.656ZM194.51 17.752C193.352 17.752 192.438 18.4613 191.766 19.88C191.131 21.2613 190.814 23.2027 190.814 25.704V26.6C191.224 26.6 191.728 26.5627 192.326 26.488C193.894 26.3013 195.088 25.7973 195.91 24.976C196.768 24.1173 197.198 22.9973 197.198 21.616C197.198 20.496 196.936 19.5813 196.414 18.872C195.928 18.1253 195.294 17.752 194.51 17.752Z" fill="white"/>
</g>
<g filter="url(#filter1_d_12_506)">
<g clip-path="url(#clip0_12_506)">
<path d="M29.5019 31.6667H32.667V34.8334H20.0003C11.2556 34.8334 4.16699 27.7448 4.16699 19C4.16699 10.2553 11.2556 3.16669 20.0003 3.16669C28.7451 3.16669 35.8337 10.2553 35.8337 19C35.8357 21.4583 35.2644 23.8831 34.1653 26.0819C33.0662 28.2808 31.4694 30.193 29.5019 31.6667ZM20.0003 15.8334C20.8402 15.8334 21.6456 15.4997 22.2395 14.9059C22.8334 14.312 23.167 13.5065 23.167 12.6667C23.167 11.8268 22.8334 11.0214 22.2395 10.4275C21.6456 9.83365 20.8402 9.50002 20.0003 9.50002C19.1605 9.50002 18.355 9.83365 17.7612 10.4275C17.1673 11.0214 16.8337 11.8268 16.8337 12.6667C16.8337 13.5065 17.1673 14.312 17.7612 14.9059C18.355 15.4997 19.1605 15.8334 20.0003 15.8334ZM13.667 22.1667C14.5068 22.1667 15.3123 21.8331 15.9062 21.2392C16.5 20.6453 16.8337 19.8399 16.8337 19C16.8337 18.1602 16.5 17.3547 15.9062 16.7608C15.3123 16.167 14.5068 15.8334 13.667 15.8334C12.8271 15.8334 12.0217 16.167 11.4278 16.7608C10.834 17.3547 10.5003 18.1602 10.5003 19C10.5003 19.8399 10.834 20.6453 11.4278 21.2392C12.0217 21.8331 12.8271 22.1667 13.667 22.1667ZM26.3337 22.1667C27.1735 22.1667 27.979 21.8331 28.5728 21.2392C29.1667 20.6453 29.5003 19.8399 29.5003 19C29.5003 18.1602 29.1667 17.3547 28.5728 16.7608C27.979 16.167 27.1735 15.8334 26.3337 15.8334C25.4938 15.8334 24.6884 16.167 24.0945 16.7608C23.5006 17.3547 23.167 18.1602 23.167 19C23.167 19.8399 23.5006 20.6453 24.0945 21.2392C24.6884 21.8331 25.4938 22.1667 26.3337 22.1667ZM20.0003 28.5C20.8402 28.5 21.6456 28.1664 22.2395 27.5725C22.8334 26.9787 23.167 26.1732 23.167 25.3334C23.167 24.4935 22.8334 23.688 22.2395 23.0942C21.6456 22.5003 20.8402 22.1667 20.0003 22.1667C19.1605 22.1667 18.355 22.5003 17.7612 23.0942C17.1673 23.688 16.8337 24.4935 16.8337 25.3334C16.8337 26.1732 17.1673 26.9787 17.7612 27.5725C18.355 28.1664 19.1605 28.5 20.0003 28.5Z" fill="white"/>
</g>
</g>
<defs>
<filter id="filter0_d_12_506" x="40.1201" y="7.56" width="166.117" height="35.944" filterUnits="userSpaceOnUse" color-interpolation-filters="sRGB">
<feFlood flood-opacity="0" result="BackgroundImageFix"/>
<feColorMatrix in="SourceAlpha" type="matrix" values="0 0 0 0 0 0 0 0 0 0 0 0 0 0 0 0 0 0 127 0" result="hardAlpha"/>
<feOffset dy="4"/>
<feGaussianBlur stdDeviation="2"/>
<feComposite in2="hardAlpha" operator="out"/>
<feColorMatrix type="matrix" values="0 0 0 0 0 0 0 0 0 0 0 0 0 0 0 0 0 0 0.25 0"/>
<feBlend mode="normal" in2="BackgroundImageFix" result="effect1_dropShadow_12_506"/>
<feBlend mode="normal" in="SourceGraphic" in2="effect1_dropShadow_12_506" result="shape"/>
</filter>
<filter id="filter1_d_12_506" x="-3" y="0" width="46" height="46" filterUnits="userSpaceOnUse" color-interpolation-filters="sRGB">
<feFlood flood-opacity="0" result="BackgroundImageFix"/>
<feColorMatrix in="SourceAlpha" type="matrix" values="0 0 0 0 0 0 0 0 0 0 0 0 0 0 0 0 0 0 127 0" result="hardAlpha"/>
<feOffset dy="4"/>
<feGaussianBlur stdDeviation="2"/>
<feComposite in2="hardAlpha" operator="out"/>
<feColorMatrix type="matrix" values="0 0 0 0 0 0 0 0 0 0 0 0 0 0 0 0 0 0 0.25 0"/>
<feBlend mode="normal" in2="BackgroundImageFix" result="effect1_dropShadow_12_506"/>
<feBlend mode="normal" in="SourceGraphic" in2="effect1_dropShadow_12_506" result="shape"/>
</filter>
<clipPath id="clip0_12_506">
<rect x="1" width="38" height="38" rx="16" fill="white"/>
</clipPath>
</defs>
</svg>
